<?xml version="1.0" encoding="UTF-8" standalone="no"?>
<svg
   xmlns:dc="http://purl.org/dc/elements/1.1/"
   xmlns:cc="http://creativecommons.org/ns#"
   xmlns:rdf="http://www.w3.org/1999/02/22-rdf-syntax-ns#"
   xmlns:svg="http://www.w3.org/2000/svg"
   xmlns="http://www.w3.org/2000/svg"
   xmlns:sodipodi="http://sodipodi.sourceforge.net/DTD/sodipodi-0.dtd"
   xmlns:inkscape="http://www.inkscape.org/namespaces/inkscape"
   inkscape:export-ydpi="600"
   inkscape:export-xdpi="600"
   inkscape:export-filename="D:\Dropbox\PhD\Handing in\Defence\Defence slides\Figures\Vestjylland.png"
   inkscape:version="1.0 (4035a4fb49, 2020-05-01)"
   sodipodi:docname="Vestjylland.svg"
   id="svg62"
   preserveAspectRatio="xMidYMid meet"
   viewBox="0 0 842.99014 1010.6636"
   height="1010.6636pt"
   width="842.99017pt"
   version="1.0">
  <defs
     id="defs66" />
  <sodipodi:namedview
     inkscape:document-rotation="0"
     inkscape:current-layer="g60"
     inkscape:window-maximized="1"
     inkscape:window-y="-8"
     inkscape:window-x="1912"
     inkscape:cy="701.96637"
     inkscape:cx="1126.5497"
     inkscape:zoom="0.47066795"
     showgrid="false"
     id="namedview64"
     inkscape:window-height="1017"
     inkscape:window-width="1920"
     inkscape:pageshadow="2"
     inkscape:pageopacity="0"
     guidetolerance="10"
     gridtolerance="10"
     objecttolerance="10"
     borderopacity="1"
     bordercolor="#666666"
     pagecolor="#ffffff" />
  <metadata
     id="metadata2">
Created by potrace 1.15, written by Peter Selinger 2001-2017
<rdf:RDF>
  <cc:Work
     rdf:about="">
    <dc:format>image/svg+xml</dc:format>
    <dc:type
       rdf:resource="http://purl.org/dc/dcmitype/StillImage" />
    <dc:title />
  </cc:Work>
</rdf:RDF>
</metadata>
  <g
     style="fill:#000000;stroke:none"
     id="g60"
     transform="matrix(0.1,0,0,-0.1,0.57487502,1010.5749)">
    <path
       inkscape:connector-curvature="0"
       style="fill:#bcbcbc;fill-opacity:1;stroke:#000000;stroke-width:11.4975;stroke-miterlimit:4;stroke-dasharray:none;stroke-opacity:1"
       id="path4"
       d="m 4457,10070 c -26,-16 -87,-67 -135,-113 -260,-247 -252,-241 -436,-291 -164,-45 -224,-53 -264,-32 -44,23 -104,20 -136,-5 -15,-12 -51,-58 -80,-103 -29,-44 -96,-133 -149,-196 -88,-105 -106,-133 -197,-320 -56,-112 -113,-220 -128,-239 -15,-19 -36,-51 -47,-72 -61,-114 -272,-312 -400,-375 -82,-40 -209,-74 -280,-74 -28,0 -102,12 -165,26 -158,36 -230,31 -364,-25 -55,-22 -104,-41 -110,-41 -5,0 -27,-12 -47,-26 -51,-35 -128,-34 -254,2 l -94,27 -41,-18 c -26,-12 -58,-40 -85,-74 -24,-31 -91,-110 -149,-176 C 786,7821 702,7706 585,7515 461,7315 429,7225 428,7070 c 0,-90 13,-120 65,-150 37,-21 52,-2 52,63 0,29 5,54 10,56 18,7 35,-43 35,-104 0,-73 11,-90 87,-141 94,-61 174,-149 222,-242 23,-46 40,-90 37,-98 -8,-21 -33,-17 -70,11 -18,14 -38,25 -45,25 -6,0 -37,9 -68,20 -63,22 -153,19 -175,-7 -10,-12 -13,-9 -22,18 -7,20 -26,44 -49,59 -56,38 -80,111 -65,196 13,73 6,108 -26,130 -30,19 -66,5 -66,-26 0,-34 -58,-180 -107,-269 l -48,-86 -3,-299 c -2,-164 -1,-314 3,-332 6,-37 33,-46 55,-19 7,8 18,15 25,15 16,0 130,-122 157,-167 14,-23 28,-33 44,-33 27,0 31,-12 9,-30 -12,-10 -25,-3 -72,40 -32,29 -70,58 -84,64 -14,6 -38,26 -53,44 -67,79 -87,28 -106,-269 -6,-96 -20,-221 -31,-279 -14,-76 -20,-161 -23,-310 -2,-113 -7,-231 -12,-263 l -7,-57 h 56 c 76,0 80,9 85,188 2,78 8,142 12,142 18,0 166,-120 182,-147 9,-16 22,-69 29,-118 7,-59 18,-98 32,-116 12,-17 18,-37 15,-53 -3,-17 1,-31 13,-42 11,-9 27,-42 36,-72 l 17,-55 -59,-53 c -33,-30 -80,-67 -105,-84 -25,-16 -57,-41 -71,-56 -17,-17 -29,-22 -33,-15 -4,6 -13,68 -21,139 -25,221 -47,296 -88,290 -22,-3 -22,-4 -17,-183 3,-99 5,-274 5,-390 -1,-203 -2,-213 -29,-294 C 141,3664 99,3560 64,3479 29,3398 0,3319 0,3303 c 0,-46 25,-70 124,-117 76,-37 112,-62 189,-136 53,-49 104,-90 114,-90 19,0 43,41 43,72 0,25 -23,69 -65,123 -36,48 -70,137 -61,160 10,27 26,16 47,-32 11,-26 45,-73 75,-104 30,-32 54,-65 54,-73 0,-28 67,-91 127,-118 32,-15 94,-42 137,-60 99,-41 128,-75 158,-183 19,-70 22,-107 23,-300 1,-179 5,-232 20,-285 46,-167 47,-176 15,-275 -34,-108 -60,-230 -60,-282 0,-21 7,-78 15,-128 8,-49 15,-134 15,-188 0,-172 20,-187 209,-147 137,29 161,27 343,-34 90,-30 213,-64 273,-76 150,-29 151,-29 157,-85 12,-105 119,-146 251,-97 32,12 80,23 105,25 l 47,2 3,-37 c 2,-20 9,-39 17,-42 7,-2 41,13 74,34 92,60 133,78 188,85 53,8 84,1 182,-40 79,-33 103,-26 133,41 19,44 19,49 4,87 -24,61 2,80 79,60 22,-6 51,-14 65,-17 14,-3 33,-18 42,-34 21,-35 73,-62 120,-62 18,0 60,12 93,26 33,14 79,30 103,36 56,13 67,34 57,117 -5,36 -10,91 -11,121 -2,30 -3,58 -3,61 -1,3 -12,11 -26,17 -35,16 -116,93 -177,169 -28,35 -58,63 -65,63 -23,0 -73,30 -117,69 -23,22 -56,41 -76,44 -19,4 -55,11 -80,16 -25,6 -70,10 -100,11 -54,0 -56,-1 -97,-49 -24,-28 -43,-56 -43,-63 0,-7 17,-22 38,-33 23,-12 38,-29 40,-42 5,-34 -18,-29 -68,14 l -44,38 -100,-1 c -83,-1 -96,1 -81,12 78,57 106,104 86,142 -15,27 -14,32 5,32 16,0 44,56 44,88 0,11 -7,25 -16,32 -22,19 -44,-6 -51,-59 -5,-33 -8,-39 -19,-30 -17,14 -18,33 -2,59 10,16 10,24 0,40 -17,27 -12,33 54,71 53,30 58,31 95,19 29,-10 45,-10 63,-2 27,12 116,133 143,193 15,34 21,39 49,39 33,0 64,21 64,44 0,18 -49,66 -67,66 -7,0 -27,-10 -43,-21 l -28,-22 -34,21 c -68,42 -70,47 -93,237 -23,201 -23,202 35,275 75,93 77,148 7,190 -22,14 -50,20 -90,20 -104,0 -40,27 105,44 39,5 46,3 42,-9 -4,-8 8,-37 25,-63 25,-39 30,-56 25,-80 -13,-66 36,-125 115,-138 43,-7 48,-13 29,-32 -10,-10 -10,-17 0,-33 11,-18 11,-24 -4,-40 -36,-40 11,-118 89,-147 59,-22 64,-33 66,-130 1,-79 25,-188 51,-230 11,-18 32,-37 46,-42 14,-6 23,-14 19,-19 -3,-5 3,-16 13,-23 16,-11 20,-31 24,-126 7,-134 13,-145 85,-146 45,-1 48,1 51,27 2,15 -6,55 -18,89 -11,33 -19,63 -16,65 2,3 13,0 24,-6 12,-6 29,-11 39,-11 53,0 93,-22 118,-64 14,-23 25,-45 25,-48 0,-4 -20,-16 -45,-28 -75,-36 -108,-107 -67,-142 9,-9 37,-19 62,-23 75,-11 108,-24 113,-47 l 6,-20 -23,21 c -30,28 -64,27 -71,-2 -8,-30 9,-73 33,-86 25,-13 62,12 62,42 0,16 3,18 12,9 26,-26 47,-14 59,33 6,25 15,48 20,51 5,3 49,-18 98,-46 66,-37 113,-56 178,-70 48,-11 119,-29 158,-40 38,-11 83,-20 100,-20 h 30 l -32,-26 c -43,-34 -43,-62 3,-154 57,-113 109,-123 225,-42 87,61 115,139 53,150 -29,6 -31,11 -39,85 -7,69 7,95 19,35 13,-67 55,-78 87,-23 12,20 30,40 40,46 27,14 64,91 95,200 14,52 31,100 37,108 8,9 11,88 12,229 v 216 l 32,8 c 44,12 58,39 35,69 -10,13 -40,64 -67,114 -26,49 -73,128 -105,175 -68,101 -106,173 -94,177 39,14 109,61 112,75 2,9 -12,39 -31,66 -19,28 -58,109 -87,181 -29,72 -61,142 -72,156 -36,46 -114,24 -88,-25 8,-16 8,-30 0,-56 -7,-19 -10,-55 -8,-80 3,-36 0,-44 -14,-44 -14,0 -58,-64 -58,-84 0,-3 19,-15 42,-27 l 42,-22 -29,-23 c -16,-13 -61,-33 -99,-45 -48,-14 -80,-31 -104,-55 -34,-34 -62,-44 -62,-23 0,16 64,75 98,91 24,12 27,19 30,71 3,51 6,59 28,67 28,11 29,12 9,55 -17,34 -50,55 -90,55 -14,0 -33,9 -42,21 -130,156 -279,246 -307,184 -7,-17 -18,-20 -66,-20 -49,-1 -65,-6 -111,-38 -30,-20 -129,-70 -221,-111 -92,-41 -187,-88 -210,-104 -24,-16 -53,-32 -65,-36 -34,-11 -79,18 -93,59 -14,41 -38,51 -108,40 -54,-8 -68,-15 -129,-61 -25,-19 -49,-34 -55,-34 -15,0 130,118 173,140 40,21 99,83 99,105 0,7 8,27 17,43 14,25 15,34 5,57 -11,24 -17,26 -45,21 -104,-20 -102,-20 -117,9 -19,35 -106,115 -182,166 -32,22 -58,42 -58,45 0,14 57,-10 112,-47 33,-21 67,-39 77,-39 10,0 44,-9 77,-21 84,-29 127,-27 213,10 41,17 103,36 137,40 76,11 80,13 100,54 9,18 32,49 50,70 39,42 39,45 19,83 -27,53 -11,147 30,166 16,7 27,24 34,54 22,88 10,127 -44,143 -22,7 -25,9 -9,10 40,2 88,-42 129,-119 63,-118 106,-105 129,38 12,72 18,86 54,128 23,26 46,63 51,83 5,20 12,106 16,191 3,85 11,181 17,212 9,47 8,64 -7,105 -22,61 -32,228 -16,275 6,19 34,61 61,93 27,32 62,83 77,113 51,100 60,115 78,129 24,17 59,17 95,-2 l 29,-15 -31,-60 c -16,-34 -36,-60 -45,-60 -8,0 -44,-16 -80,-36 l -65,-37 5,-45 c 6,-52 73,-155 104,-160 11,-2 38,12 62,33 49,40 61,42 85,16 16,-18 16,-21 1,-44 -36,-55 -13,-150 40,-163 33,-8 92,13 110,39 21,30 19,55 -12,138 l -26,72 55,53 c 52,50 100,75 116,59 4,-3 -1,-11 -11,-16 -41,-23 -2,-160 59,-208 33,-26 90,-28 103,-3 5,9 12,60 16,112 5,73 12,103 29,130 13,19 30,47 40,62 9,16 39,45 66,65 28,21 50,41 50,46 0,5 22,39 49,76 66,90 78,116 89,198 6,42 25,104 45,150 60,132 61,124 -27,208 -61,59 -76,79 -76,103 0,36 -28,73 -84,111 -61,43 -84,46 -162,21 -179,-55 -396,-81 -495,-59 -69,15 -88,35 -159,160 -20,36 -45,66 -60,72 -14,6 -27,12 -29,14 -2,2 24,33 60,69 l 63,67 -54,48 c -64,56 -180,109 -240,109 -31,0 -40,4 -40,18 1,56 71,56 168,-1 34,-20 69,-34 77,-31 23,9 19,79 -10,178 -35,121 -57,271 -57,401 -1,93 4,129 30,229 26,100 39,131 85,200 52,78 73,122 131,287 28,80 118,228 179,296 65,72 66,85 41,408 l -17,210 23,74 c 44,143 4,283 -92,320 -16,6 -36,27 -49,53 -18,36 -21,53 -16,113 3,38 13,103 23,144 20,89 37,109 192,238 62,52 120,105 129,119 14,23 15,27 1,41 -17,16 -115,43 -159,43 -14,0 -46,-13 -72,-30 z M 3214,7965 c -14,-25 -22,-45 -17,-45 4,0 1,-5 -7,-10 -8,-5 -49,-10 -91,-10 -96,0 -103,-6 -211,-156 -45,-63 -83,-112 -86,-109 -2,2 7,18 22,35 14,17 26,35 26,40 0,35 -179,95 -320,108 l -85,7 117,39 c 114,38 118,39 138,21 31,-28 103,-22 172,15 55,28 65,30 168,30 96,0 111,2 117,18 10,28 45,62 65,62 17,0 17,-4 -8,-45 z M 2097,7820 c 89,-122 114,-132 196,-80 26,16 47,28 47,27 0,-2 -47,-45 -104,-96 -58,-52 -109,-105 -115,-120 -5,-14 -12,-78 -14,-141 -2,-65 -12,-142 -22,-176 -17,-60 -17,-63 5,-122 12,-33 33,-71 46,-83 15,-14 24,-34 24,-53 0,-29 -34,-109 -62,-149 -31,-42 42,-73 101,-43 69,36 96,13 96,-83 0,-36 -4,-79 -8,-95 -8,-28 -8,-28 -29,-10 -16,15 -34,19 -89,17 -58,-2 -71,0 -76,15 -8,22 -23,32 -50,32 -30,0 -37,-15 -34,-77 2,-51 0,-57 -38,-94 -22,-23 -45,-38 -51,-34 -13,8 -13,106 0,140 6,15 25,46 44,68 57,70 89,159 94,262 5,115 -9,168 -58,217 -35,35 -42,38 -96,38 h -59 l 36,30 c 46,37 54,65 27,92 -18,18 -29,20 -86,15 -58,-4 -69,-9 -89,-34 -27,-33 -28,-46 -8,-63 22,-18 19,-26 -16,-41 -18,-7 -45,-24 -62,-38 -28,-24 -29,-24 -16,-3 13,20 11,28 -17,80 -34,62 -48,111 -36,127 4,6 20,15 36,20 17,6 38,24 48,41 39,67 64,274 36,302 -20,20 -39,14 -99,-28 -32,-22 -62,-40 -68,-40 -6,0 -11,-14 -11,-30 0,-20 -11,-42 -32,-66 -31,-33 -39,-36 -135,-49 -56,-8 -113,-17 -128,-21 -14,-3 -25,-3 -25,0 0,17 51,104 73,124 21,20 25,21 30,8 7,-19 58,-21 90,-5 12,6 57,47 99,91 67,70 80,80 102,74 14,-3 38,-9 52,-12 34,-9 154,27 264,77 112,52 142,50 187,-11 z m -951,-515 c -32,-55 -32,-61 1,-79 l 27,-14 -34,-21 c -19,-11 -48,-21 -63,-21 -32,0 -77,-41 -98,-90 -16,-36 -39,-23 -39,22 0,41 22,78 67,114 21,17 65,69 98,116 l 60,84 3,-33 c 2,-23 -5,-49 -22,-78 z m -115,-312 c 39,-42 41,-48 24,-51 -45,-9 -59,-46 -28,-77 15,-16 38,-16 76,0 12,5 17,3 17,-8 0,-22 74,-84 114,-96 78,-21 161,35 219,151 15,30 46,72 69,94 l 41,39 -41,-59 c -23,-33 -42,-65 -42,-72 0,-8 19,-24 43,-36 l 42,-22 -50,-6 c -62,-6 -91,-28 -159,-117 -41,-53 -61,-71 -93,-81 -23,-7 -44,-21 -48,-29 -9,-24 27,-155 45,-161 25,-9 30,-24 30,-104 0,-81 -13,-134 -31,-123 -5,4 -19,-1 -29,-10 -15,-14 -29,-16 -64,-11 -24,4 -49,13 -55,20 -7,8 -18,47 -26,87 -9,41 -18,84 -20,97 -3,13 -20,29 -40,39 -40,19 -44,29 -16,38 26,8 81,71 81,93 1,17 29,74 30,58 0,-5 7,-3 15,4 35,29 7,90 -41,90 -20,0 -24,5 -24,30 0,40 -36,59 -83,43 -18,-6 -58,-8 -92,-4 l -60,6 45,20 c 24,11 57,31 72,43 27,23 28,26 22,93 -5,44 -3,69 3,69 6,0 30,-21 54,-47 z m 1221,-570 c -2,-27 -6,-50 -8,-52 -7,-8 -16,51 -10,74 11,43 24,27 18,-22 z m 144,-75 c 5,-8 2,-9 -10,-5 -9,4 -36,0 -58,-8 -52,-17 -60,-13 -16,8 39,20 74,22 84,5 z M 3516,4175 c -42,-39 -30,-77 40,-123 16,-11 6,-12 -65,-8 -47,3 -89,10 -95,16 -13,13 60,100 105,122 45,24 47,23 15,-7 z M 2958,1410 c 33,-20 40,-34 21,-45 -9,-6 -83,38 -95,57 -10,16 41,8 74,-12 z" />
    <path
       inkscape:connector-curvature="0"
       style="fill:#bcbcbc;fill-opacity:1;stroke:#000000;stroke-width:11.4975;stroke-miterlimit:4;stroke-dasharray:none;stroke-opacity:1"
       id="path6"
       d="m 1929,7471 c -21,-16 -22,-22 -11,-45 6,-14 24,-32 38,-38 23,-11 29,-10 45,11 22,27 24,41 7,63 -21,27 -53,30 -79,9 z" />
    <path
       inkscape:connector-curvature="0"
       style="fill:#bcbcbc;fill-opacity:1;stroke:#000000;stroke-width:11.4975;stroke-miterlimit:4;stroke-dasharray:none;stroke-opacity:1"
       id="path8"
       d="m 1138,6493 c -43,-49 -57,-139 -26,-169 23,-24 46,-11 68,38 42,91 10,190 -42,131 z" />
    <path
       inkscape:connector-curvature="0"
       style="fill:#bcbcbc;fill-opacity:1;stroke:#000000;stroke-width:11.4975;stroke-miterlimit:4;stroke-dasharray:none;stroke-opacity:1"
       id="path10"
       d="m 5340,8740 c -81,-17 -179,-50 -208,-69 -20,-12 -102,-153 -96,-163 3,-5 46,-35 95,-68 58,-40 89,-67 89,-79 0,-24 24,-44 47,-39 9,2 29,20 43,41 14,20 40,46 57,57 36,21 60,62 77,129 11,43 13,45 81,72 98,40 129,84 87,122 -25,23 -160,21 -272,-3 z" />
    <path
       inkscape:connector-curvature="0"
       style="fill:#bcbcbc;fill-opacity:1;stroke:#000000;stroke-width:11.4975;stroke-miterlimit:4;stroke-dasharray:none;stroke-opacity:1"
       id="path12"
       d="m 6258,6880 c -114,-25 -128,-33 -128,-72 0,-45 96,-141 136,-136 20,2 30,11 37,33 6,17 32,57 59,89 84,101 59,121 -104,86 z" />
    <path
       inkscape:connector-curvature="0"
       style="fill:#bcbcbc;fill-opacity:1;stroke:#000000;stroke-width:11.4975;stroke-miterlimit:4;stroke-dasharray:none;stroke-opacity:1"
       id="path14"
       d="m 7423,4966 c -100,-47 -453,-304 -591,-431 -79,-73 -90,-96 -72,-149 14,-42 22,-43 134,-20 143,29 157,19 175,-124 6,-46 20,-113 31,-149 28,-91 25,-95 -15,-20 -20,39 -37,88 -41,119 -11,94 -22,122 -53,141 -72,42 -151,5 -151,-71 0,-40 25,-125 54,-180 l 16,-31 -32,-17 c -107,-54 -137,-106 -138,-237 0,-72 -4,-93 -19,-113 -16,-21 -20,-22 -31,-9 -7,8 -19,15 -27,15 -10,0 -12,8 -8,33 5,24 2,37 -10,47 -9,8 -30,40 -46,72 -17,33 -39,63 -52,68 l -22,9 h 23 c 12,1 25,8 29,17 7,20 -28,108 -79,197 -22,38 -38,70 -36,72 6,6 68,-36 68,-46 0,-13 64,-11 78,3 14,14 16,87 2,122 -8,21 -5,31 15,54 48,57 57,110 24,143 -24,24 -62,19 -124,-17 -67,-39 -130,-40 -300,-6 -82,17 -185,35 -228,41 -43,6 -110,24 -149,41 -88,38 -125,39 -134,6 -3,-13 -1,-34 6,-45 22,-42 138,-98 264,-126 39,-9 78,-21 88,-26 36,-19 58,-70 58,-132 0,-68 -15,-86 -115,-144 -56,-32 -63,-34 -99,-23 -55,17 -64,4 -43,-63 26,-83 23,-100 -25,-142 -64,-55 -135,-91 -218,-114 -42,-11 -84,-23 -95,-26 -11,-3 -8,1 8,10 34,20 35,48 1,74 -39,31 -85,26 -163,-15 -68,-36 -69,-36 -102,-18 -72,37 -235,27 -275,-17 -25,-28 -11,-45 43,-53 64,-8 147,-57 177,-104 l 23,-37 -51,-13 c -28,-7 -60,-22 -71,-33 -17,-17 -18,-21 -5,-33 8,-8 53,-26 100,-41 47,-14 103,-37 126,-50 51,-30 121,-105 140,-151 19,-44 8,-64 -51,-98 -82,-49 -90,-113 -18,-142 57,-24 79,-49 114,-133 24,-55 33,-92 33,-134 1,-55 -1,-60 -35,-90 -20,-18 -59,-44 -88,-60 -28,-15 -54,-34 -58,-43 -8,-22 12,-60 42,-80 25,-16 28,-16 56,0 23,14 30,15 28,4 -3,-28 3,-40 55,-102 30,-35 66,-87 81,-116 23,-45 24,-53 11,-63 -12,-10 -13,-23 -6,-67 17,-103 114,-154 191,-99 60,42 137,36 373,-32 76,-22 160,-43 186,-46 43,-5 49,-3 55,16 3,11 13,21 21,21 18,0 18,-4 -2,-41 -8,-17 -12,-39 -9,-50 8,-25 61,-49 107,-49 40,0 24,-14 -34,-30 -48,-13 -50,-38 -9,-101 19,-31 47,-56 86,-78 71,-40 67,-50 -7,-16 -108,49 -218,57 -218,15 0,-13 31,-37 108,-84 59,-35 134,-88 167,-116 82,-71 114,-90 155,-90 42,0 114,-32 127,-55 8,-13 26,-17 85,-18 72,-2 76,-1 138,41 35,23 74,42 87,42 33,0 69,26 82,58 10,24 7,42 -23,124 l -35,97 34,21 c 25,15 36,31 41,56 13,70 -15,111 -89,130 -41,10 -42,11 -40,50 6,86 59,165 138,206 27,14 74,24 150,30 164,15 235,38 297,98 l 51,49 -6,78 c -7,92 -35,178 -80,248 -19,28 -36,57 -39,65 -3,9 -30,21 -66,28 -33,7 -71,21 -85,32 -14,11 -37,20 -51,20 -49,0 -136,97 -136,152 0,37 28,137 57,201 33,73 74,108 199,172 89,45 104,49 168,50 68,0 71,1 92,32 l 22,33 7,-47 c 10,-69 34,-121 65,-143 58,-41 167,-17 222,49 23,27 25,33 16,88 -5,32 -15,83 -23,113 -30,109 -113,416 -128,470 -9,30 -20,85 -25,122 -7,43 -27,103 -56,166 -25,54 -46,106 -46,115 0,9 17,57 37,107 29,70 42,92 60,96 13,4 23,13 23,22 0,9 9,35 21,59 19,39 19,47 8,99 -7,33 -19,58 -28,62 -9,3 -40,27 -69,54 -34,30 -68,51 -95,58 -23,6 -60,19 -82,29 -22,10 -80,30 -130,45 -49,15 -115,36 -146,46 -71,25 -83,25 -146,-4 z M 6436,3931 c 5,-5 18,-11 29,-13 14,-3 6,-9 -27,-20 -51,-18 -66,-11 -48,22 11,21 30,26 46,11 z m 705,-274 c -11,-29 -77,-55 -108,-42 -14,6 -7,10 27,16 30,6 51,17 64,33 24,31 30,28 17,-7 z m 16,-1803 c -9,-10 -38,16 -31,28 4,6 13,4 22,-6 9,-8 13,-19 9,-22 z" />
    <path
       inkscape:connector-curvature="0"
       style="fill:#bcbcbc;fill-opacity:1;stroke:#000000;stroke-width:11.4975;stroke-miterlimit:4;stroke-dasharray:none;stroke-opacity:1"
       id="path16"
       d="m 4401,4571 c -22,-22 -39,-153 -25,-195 5,-13 25,-35 44,-48 50,-34 51,-64 1,-147 -27,-44 -47,-93 -56,-139 -14,-66 -14,-74 5,-134 27,-89 37,-100 98,-106 103,-9 121,10 143,150 6,40 24,102 40,137 37,82 38,101 1,101 -26,0 -30,5 -40,49 -6,27 -29,77 -51,111 -27,41 -45,86 -57,136 -9,41 -23,81 -31,89 -20,20 -49,19 -72,-4 z" />
    <path
       inkscape:connector-curvature="0"
       style="fill:#bcbcbc;fill-opacity:1;stroke:#000000;stroke-width:11.4975;stroke-miterlimit:4;stroke-dasharray:none;stroke-opacity:1"
       id="path18"
       d="m 4180,4470 c -9,-6 -14,-23 -13,-52 2,-54 39,-91 87,-86 28,3 31,6 34,42 5,60 -4,83 -39,95 -39,13 -50,14 -69,1 z" />
    <path
       inkscape:connector-curvature="0"
       style="fill:#bcbcbc;fill-opacity:1;stroke:#000000;stroke-width:11.4975;stroke-miterlimit:4;stroke-dasharray:none;stroke-opacity:1"
       id="path20"
       d="m 5384,4306 c -17,-13 -17,-15 0,-54 22,-49 76,-103 132,-131 50,-26 74,-19 74,21 0,45 -26,80 -88,120 -89,56 -97,59 -118,44 z" />
    <path
       inkscape:connector-curvature="0"
       style="fill:#bcbcbc;fill-opacity:1;stroke:#000000;stroke-width:11.4975;stroke-miterlimit:4;stroke-dasharray:none;stroke-opacity:1"
       id="path22"
       d="m 3975,3880 c -25,-22 -54,-40 -64,-40 -9,0 -26,-6 -36,-14 -19,-14 -19,-15 -2,-34 24,-26 80,-36 123,-22 41,14 64,53 64,110 0,53 -23,53 -85,0 z" />
    <path
       inkscape:connector-curvature="0"
       style="fill:#bcbcbc;fill-opacity:1;stroke:#000000;stroke-width:11.4975;stroke-miterlimit:4;stroke-dasharray:none;stroke-opacity:1"
       id="path24"
       d="m 8312,3534 c -33,-23 -30,-96 7,-165 22,-42 34,-54 52,-54 36,0 50,38 47,124 -3,63 -7,76 -27,92 -28,23 -49,24 -79,3 z" />
    <path
       inkscape:connector-curvature="0"
       style="fill:#bcbcbc;fill-opacity:1;stroke:#000000;stroke-width:11.4975;stroke-miterlimit:4;stroke-dasharray:none;stroke-opacity:1"
       id="path26"
       d="m 506,2958 c -20,-31 -21,-44 -12,-113 10,-81 27,-145 37,-145 4,0 13,-19 19,-42 13,-48 62,-98 95,-98 40,0 48,24 53,145 6,147 -1,183 -36,196 -14,6 -45,26 -68,45 -49,40 -68,42 -88,12 z" />
    <path
       inkscape:connector-curvature="0"
       style="fill:#bcbcbc;fill-opacity:1;stroke:#000000;stroke-width:11.4975;stroke-miterlimit:4;stroke-dasharray:none;stroke-opacity:1"
       id="path28"
       d="m 5120,2469 c -17,-24 -29,-50 -28,-58 4,-22 45,-26 74,-6 21,14 25,23 22,58 -4,58 -28,60 -68,6 z" />
    <path
       inkscape:connector-curvature="0"
       style="fill:#bcbcbc;fill-opacity:1;stroke:#000000;stroke-width:11.4975;stroke-miterlimit:4;stroke-dasharray:none;stroke-opacity:1"
       id="path30"
       d="m 6708.7112,9073.0076 c -33,-49 -84,-328 -85,-458 0,-166 35,-220 173,-264 52,-16 119,-47 165,-76 119,-75 231,-128 288,-135 42,-4 62,-1 107,20 84,38 97,56 97,130 0,34 9,108 20,165 11,56 20,115 20,131 0,43 -35,68 -115,81 -38,6 -77,18 -87,27 -9,8 -40,50 -68,93 -55,84 -50,81 -214,140 -35,12 -99,51 -158,95 -54,41 -105,75 -113,75 -8,0 -21,-11 -30,-24 z" />
    <path
       inkscape:connector-curvature="0"
       style="fill:#bcbcbc;fill-opacity:1;stroke:#000000;stroke-width:11.4975;stroke-miterlimit:4;stroke-dasharray:none;stroke-opacity:1"
       id="path32"
       d="m 3056,2474 c -18,-18 -21,-85 -6,-115 13,-23 53,-25 74,-3 20,20 20,66 1,104 -17,33 -45,39 -69,14 z" />
    <path
       inkscape:connector-curvature="0"
       style="fill:#bcbcbc;fill-opacity:1;stroke:#000000;stroke-width:11.4975;stroke-miterlimit:4;stroke-dasharray:none;stroke-opacity:1"
       id="path34"
       d="m 765,2425 c -46,-45 -21,-92 52,-102 46,-6 61,8 70,63 5,29 2,40 -12,50 -30,22 -83,17 -110,-11 z" />
    <path
       inkscape:connector-curvature="0"
       style="fill:#bcbcbc;fill-opacity:1;stroke:#000000;stroke-width:11.4975;stroke-miterlimit:4;stroke-dasharray:none;stroke-opacity:1"
       id="path36"
       d="m 705,2145 c -22,-8 -41,-15 -42,-15 -1,0 -9,-12 -16,-27 -9,-18 -17,-82 -21,-173 -4,-80 -9,-160 -12,-177 -5,-25 -3,-33 8,-33 8,0 23,-9 33,-20 27,-30 59,-25 88,14 15,18 37,36 51,40 33,8 46,51 46,148 0,70 3,83 26,113 36,47 43,106 15,123 -34,20 -131,24 -176,7 z" />
    <path
       inkscape:connector-curvature="0"
       style="fill:#bcbcbc;fill-opacity:1;stroke:#000000;stroke-width:11.4975;stroke-miterlimit:4;stroke-dasharray:none;stroke-opacity:1"
       id="path38"
       d="m 5496,2134 c -13,-12 -13,-20 -1,-61 23,-75 66,-123 99,-110 19,8 22,67 5,115 -16,48 -78,81 -103,56 z" />
    <path
       inkscape:connector-curvature="0"
       style="fill:#bcbcbc;fill-opacity:1;stroke:#000000;stroke-width:11.4975;stroke-miterlimit:4;stroke-dasharray:none;stroke-opacity:1"
       id="path40"
       d="m 5001,1811 c -34,-47 -71,-134 -71,-166 0,-73 -101,-217 -164,-233 -24,-6 -32,-15 -37,-40 -4,-17 -25,-56 -47,-84 -69,-89 -82,-158 -43,-222 l 22,-35 -58,-42 c -109,-81 -121,-106 -83,-183 10,-23 24,-75 30,-116 15,-103 37,-168 59,-175 25,-7 67,13 85,40 8,12 28,70 45,128 48,162 166,499 196,553 14,27 41,74 60,104 66,104 125,294 125,403 0,88 -75,131 -119,68 z" />
    <path
       inkscape:connector-curvature="0"
       style="fill:#bcbcbc;fill-opacity:1;stroke:#000000;stroke-width:11.4975;stroke-miterlimit:4;stroke-dasharray:none;stroke-opacity:1"
       id="path42"
       d="m 7380,1597 c -36,-18 -49,-61 -25,-87 23,-26 31,-25 60,5 29,28 34,79 9,89 -19,7 -14,8 -44,-7 z" />
    <path
       inkscape:connector-curvature="0"
       style="fill:#bcbcbc;fill-opacity:1;stroke:#000000;stroke-width:11.4975;stroke-miterlimit:4;stroke-dasharray:none;stroke-opacity:1"
       id="path44"
       d="m 3822,1578 c -34,-34 13,-112 66,-106 36,4 40,34 10,78 -25,37 -55,49 -76,28 z" />
    <path
       inkscape:connector-curvature="0"
       style="fill:#bcbcbc;fill-opacity:1;stroke:#000000;stroke-width:11.4975;stroke-miterlimit:4;stroke-dasharray:none;stroke-opacity:1"
       id="path46"
       d="m 7498,1575 c -37,-20 -41,-44 -23,-113 21,-83 16,-92 -54,-92 -45,0 -67,-6 -102,-28 -24,-15 -57,-34 -73,-42 -32,-17 -47,-48 -39,-80 3,-13 2,-21 -3,-18 -65,31 -90,39 -113,33 -38,-10 -61,-34 -61,-66 0,-48 70,-71 150,-48 9,2 16,-4 18,-20 3,-22 2,-23 -40,-16 -82,13 -117,28 -153,66 -38,41 -83,56 -135,45 -26,-5 -32,-1 -45,25 -18,33 -69,69 -100,69 -11,0 -33,-9 -49,-19 -27,-18 -32,-19 -68,-4 -44,18 -64,12 -124,-33 -42,-32 -43,-54 -5,-82 44,-32 94,-152 63,-152 -4,0 -32,20 -62,45 -80,65 -99,60 -115,-34 -9,-52 -43,-91 -80,-91 -15,0 -36,-11 -48,-24 l -23,-25 -55,23 c -132,53 -262,154 -279,214 -13,49 -56,100 -124,146 -45,32 -65,39 -118,43 -165,13 -303,-56 -363,-182 -35,-73 -24,-112 62,-228 24,-34 40,-64 35,-69 -12,-12 -60,-14 -99,-4 -29,7 -37,4 -63,-22 -23,-24 -30,-39 -30,-71 0,-91 36,-132 143,-166 163,-52 274,-117 582,-340 72,-52 136,-95 143,-95 8,0 62,36 120,80 60,45 125,85 147,91 55,15 145,5 235,-26 41,-14 100,-27 130,-28 l 55,-2 5,42 c 4,24 8,45 11,47 3,3 11,-27 17,-66 26,-150 99,-251 185,-252 l 42,-1 v 50 c 0,28 -7,92 -15,143 -18,119 -6,183 47,260 21,30 58,93 83,141 52,100 126,199 175,237 43,33 46,69 10,140 -14,27 -25,50 -25,50 0,1 18,-7 40,-18 73,-37 148,-2 195,92 33,64 84,107 138,115 50,8 215,-10 251,-26 34,-16 93,-3 122,26 28,28 33,89 10,133 -23,44 -110,119 -152,131 -22,6 -81,18 -133,27 -93,15 -134,30 -180,65 -28,22 -28,22 -63,4 z M 6649,860 c 12,-22 20,-40 18,-40 -2,0 -16,18 -31,40 -14,22 -23,40 -18,40 5,0 18,-18 31,-40 z m 155,-336 c 10,-26 7,-69 -6,-87 -11,-14 -18,-15 -50,-5 -21,6 -38,14 -38,18 0,4 14,26 30,48 32,44 54,53 64,26 z" />
    <path
       inkscape:connector-curvature="0"
       style="fill:#bcbcbc;fill-opacity:1;stroke:#000000;stroke-width:11.4975;stroke-miterlimit:4;stroke-dasharray:none;stroke-opacity:1"
       id="path48"
       d="m 4086,1410 c -37,-11 -66,-38 -66,-62 0,-21 48,-53 100,-68 40,-11 74,5 92,45 10,22 7,29 -25,60 -37,36 -51,39 -101,25 z" />
    <path
       inkscape:connector-curvature="0"
       style="fill:#bcbcbc;fill-opacity:1;stroke:#000000;stroke-width:11.4975;stroke-miterlimit:4;stroke-dasharray:none;stroke-opacity:1"
       id="path50"
       d="m 6163,1362 c -44,-4 -57,-30 -40,-79 16,-50 52,-68 107,-53 58,16 79,67 43,108 -19,21 -59,30 -110,24 z" />
    <path
       inkscape:connector-curvature="0"
       style="fill:#bcbcbc;fill-opacity:1;stroke:#000000;stroke-width:11.4975;stroke-miterlimit:4;stroke-dasharray:none;stroke-opacity:1"
       id="path52"
       d="m 3743,1344 c -6,-16 5,-67 29,-137 7,-21 37,-66 65,-100 29,-34 53,-68 53,-74 0,-7 5,-13 11,-13 7,0 60,-47 119,-105 58,-58 110,-105 116,-105 5,0 26,13 45,29 20,17 61,41 91,54 82,36 99,95 47,160 -24,32 -59,35 -84,7 -22,-24 -35,-17 -35,18 0,35 -25,70 -57,83 -30,11 -53,-3 -53,-34 0,-20 -1,-20 -26,4 -14,13 -32,37 -41,52 -8,17 -32,36 -58,47 -24,10 -77,44 -118,74 -78,60 -94,65 -104,40 z" />
    <path
       inkscape:connector-curvature="0"
       style="fill:#bcbcbc;fill-opacity:1;stroke:#000000;stroke-width:11.4975;stroke-miterlimit:4;stroke-dasharray:none;stroke-opacity:1"
       id="path54"
       d="m 5891,1271 c -29,-40 -27,-77 4,-97 31,-20 59,-14 108,26 65,55 44,100 -47,100 -38,0 -48,-4 -65,-29 z" />
    <path
       inkscape:connector-curvature="0"
       style="fill:#bcbcbc;fill-opacity:1;stroke:#000000;stroke-width:11.4975;stroke-miterlimit:4;stroke-dasharray:none;stroke-opacity:1"
       id="path56"
       d="m 4470,1150 c -31,-31 -22,-78 20,-100 41,-22 71,68 34,104 -20,21 -30,20 -54,-4 z" />
    <path
       inkscape:connector-curvature="0"
       style="fill:#bcbcbc;fill-opacity:1;stroke:#000000;stroke-width:11.4975;stroke-miterlimit:4;stroke-dasharray:none;stroke-opacity:1"
       id="path58"
       d="m 6082,1088 c -6,-6 -12,-25 -12,-40 0,-21 6,-29 25,-34 37,-9 77,20 73,54 -3,23 -8,27 -38,30 -19,2 -41,-3 -48,-10 z" />
    <path
       sodipodi:arc-type="arc"
       sodipodi:open="true"
       d="M 46.430298,-5748.3169 A 1539.3679,2674.2747 0 0 1 1585.1372,-8422.5913 1539.3679,2674.2747 0 0 1 3125.1656,-5750.6138 1539.3679,2674.2747 0 0 1 1587.7815,-3074.0445 1539.3679,2674.2747 0 0 1 46.432569,-5743.7229"
       sodipodi:end="3.1398748"
       sodipodi:start="3.1415927"
       sodipodi:ry="2674.2747"
       sodipodi:rx="1539.3679"
       sodipodi:cy="-5748.3169"
       sodipodi:cx="1585.7982"
       sodipodi:type="arc"
       transform="scale(1,-1)"
       id="path4579"
       style="fill:#207043;fill-opacity:0.318182;stroke:#d5cd4e;stroke-width:8.59101;stroke-linejoin:round;stroke-miterlimit:3.55;stroke-dasharray:8.59101, 17.182;stroke-dashoffset:0;stroke-opacity:1" />
    <rect
       transform="scale(1,-1)"
       y="-9356.8135"
       x="6368.251"
       height="1370.3922"
       width="1338.5233"
       id="rect859"
       style="fill:none;stroke:#000000;stroke-width:28.3465;stroke-opacity:1" />
  </g>
</svg>
